<svg width="50" height="62" viewBox="0 0 50 62" fill="none" xmlns="http://www.w3.org/2000/svg">
<path d="M31.1798 39.0719C31.1798 39.0719 24.5639 20.5476 48.3805 21.8712C48.3805 21.8712 49.7041 48.3331 31.1798 39.0719Z" fill="#0FC36D"/>
<path d="M38.2187 42.5342C35.922 42.5342 33.3467 41.825 30.5117 40.4075C30.1682 40.2349 29.9033 39.9359 29.7734 39.5745C29.6581 39.2506 26.9897 31.5752 31.2302 25.8992C34.3122 21.7731 40.107 19.9147 48.4634 20.3803C49.2256 20.4222 49.8331 21.0331 49.8707 21.797C49.9006 22.39 50.5166 36.3865 43.3795 41.0467C41.862 42.0387 40.1378 42.5342 38.2187 42.5342ZM32.4162 38.0108C36.3389 39.8504 39.4747 40.0307 41.7475 38.5466C45.9796 35.7825 46.8947 27.5773 46.9169 23.3068C40.3693 23.147 35.9117 24.6226 33.6227 27.6858C30.8987 31.3334 31.9574 36.3507 32.4162 38.0108Z" fill="black"/>
<path d="M21.3966 20.4877C21.3966 20.4877 1.11561 27.9427 2.3272 1.7687C2.3272 1.7687 31.3816 0.0470018 21.3966 20.4877Z" fill="#0FC36D"/>
<path d="M15.3813 22.9682C12.7334 22.9682 9.67874 22.4009 7.01289 20.4485C2.4912 17.135 0.413206 10.8267 0.835299 1.69955C0.871186 0.936535 1.47613 0.323048 2.23914 0.277763C2.8851 0.241022 18.1744 -0.574968 23.319 7.14745C25.7149 10.7421 25.5183 15.45 22.7371 21.1432C22.568 21.4892 22.2723 21.7567 21.9109 21.8891C21.7101 21.9634 18.9067 22.9682 15.3813 22.9682ZM3.77457 3.21618C3.64555 10.5268 5.32623 15.5098 8.77731 18.039C12.9094 21.0663 18.5512 19.7795 20.3251 19.2625C22.3543 14.8588 22.5261 11.3427 20.8343 8.80336C17.69 4.08343 8.46886 3.16064 3.77457 3.21618Z" fill="black"/>
<path d="M27.0436 61.2096C26.9966 61.2096 26.9496 61.2071 26.9017 61.2028C26.1063 61.1276 25.5107 60.4398 25.5509 59.6409C25.6389 57.8842 25.7893 56.218 25.9935 54.639C26.6146 44.0713 26.2942 19.4618 10.7349 12.6536C9.97957 12.3229 9.63438 11.4428 9.96504 10.6867C10.2949 9.93219 11.1775 9.58785 11.932 9.91767C21.1009 13.9293 26.8693 23.9168 28.6098 38.8003C28.7661 40.1341 28.8832 41.449 28.9703 42.7298C33.0682 32.3749 39.3372 28.7162 39.7106 28.5068C40.4284 28.101 41.3392 28.359 41.7442 29.0759C42.1466 29.7936 41.8937 30.7019 41.1786 31.1069C41.0205 31.1992 31.4072 36.9684 28.9943 54.7595C28.8106 57.803 28.5457 59.7434 28.5209 59.9211C28.4175 60.6662 27.781 61.2096 27.0436 61.2096Z" fill="black"/>
</svg>
